# MagicaVoxel @ Ephtracy

# group
o 

# material
mtllib SprayCan.mtl
usemtl palette

# normals
vn -1 0 0
vn 1 0 0
vn 0 0 1
vn 0 0 -1
vn 0 -1 0
vn 0 1 0

# texcoords
vt 0.146484 0.5
vt 0.478516 0.5
vt 0.912109 0.5
vt 0.923828 0.5
vt 0.990234 0.5
vt 0.994141 0.5

# verts
v 2.9 2 -3.2
v 2.9 2 -3.6
v 2.9 2.6 -3.2
v 2.9 2.6 -3.6
v 2.9 2.9 -3.2
v 2.9 2.9 -3.6
v 2.9 3.2 -3.3
v 2.9 3.2 -3.4
v 2.9 3.3 -3.2
v 2.9 3.3 -3.3
v 2.9 3.3 -3.4
v 2.9 3.4 -3.2
v 2.9 3.4 -3.3
v 2.9 4.2 -3.2
v 2.9 4.2 -3.3
v 2.9 4.3 -3.2
v 2.9 4.3 -3.3
v 2.9 4.3 -3.4
v 2.9 4.4 -3.2
v 2.9 4.4 -3.3
v 2.9 4.4 -3.4
v 2.9 4.4 -3.6
v 3 2 -3
v 3 2 -3.2
v 3 2 -3.6
v 3 2 -3.8
v 3 2.6 -3
v 3 2.6 -3.2
v 3 2.6 -3.6
v 3 2.6 -3.8
v 3 2.9 -3
v 3 2.9 -3.2
v 3 2.9 -3.6
v 3 2.9 -3.8
v 3 3.3 -3.2
v 3 3.4 -3
v 3 3.4 -3.2
v 3 3.5 -3
v 3 3.5 -3.2
v 3 3.6 -3
v 3 3.6 -3.1
v 3 4 -3
v 3 4 -3.1
v 3 4.1 -3
v 3 4.1 -3.2
v 3 4.2 -3
v 3 4.2 -3.2
v 3 4.3 -3.2
v 3 4.4 -3
v 3 4.4 -3.2
v 3 4.4 -3.3
v 3 4.4 -3.4
v 3 4.4 -3.6
v 3 4.4 -3.8
v 3 4.6 -3.2
v 3 4.6 -3.6
v 3.1 4.4 -3.1
v 3.1 4.4 -3.2
v 3.1 4.4 -3.6
v 3.1 4.4 -3.7
v 3.1 4.6 -3.1
v 3.1 4.6 -3.2
v 3.1 4.6 -3.6
v 3.1 4.6 -3.7
v 3.1 5.1 -3.2
v 3.1 5.1 -3.6
v 3.2 2 -2.9
v 3.2 2 -3
v 3.2 2 -3.8
v 3.2 2 -3.9
v 3.2 2.6 -2.9
v 3.2 2.6 -3
v 3.2 2.6 -3.8
v 3.2 2.6 -3.9
v 3.2 2.9 -2.9
v 3.2 2.9 -3
v 3.2 2.9 -3.8
v 3.2 2.9 -3.9
v 3.2 3.2 -2.9
v 3.2 3.2 -3
v 3.2 3.5 -3
v 3.2 3.7 -2.9
v 3.2 3.7 -3
v 3.2 4 -2.9
v 3.2 4 -3
v 3.2 4.1 -3
v 3.2 4.2 -2.9
v 3.2 4.2 -3
v 3.2 4.4 -2.9
v 3.2 4.4 -3
v 3.2 4.4 -3.1
v 3.2 4.4 -3.7
v 3.2 4.4 -3.8
v 3.2 4.4 -3.9
v 3.2 4.6 -3
v 3.2 4.6 -3.1
v 3.2 4.6 -3.2
v 3.2 4.6 -3.6
v 3.2 4.6 -3.7
v 3.2 4.6 -3.8
v 3.2 5.1 -3.1
v 3.2 5.1 -3.2
v 3.2 5.1 -3.6
v 3.2 5.1 -3.7
v 3.5 4.6 -3.5
v 3.5 4.6 -3.7
v 3.5 4.7 -3.5
v 3.5 4.7 -3.6
v 3.5 4.7 -3.7
v 3.5 4.8 -3.1
v 3.5 4.8 -3.3
v 3.5 4.9 -3.6
v 3.5 4.9 -3.7
v 3.5 5 -3.1
v 3.5 5 -3.3
v 3.5 5 -3.4
v 3.5 5 -3.6
v 3.5 5.1 -3.4
v 3.5 5.1 -3.7
v 3.3 4.6 -3.5
v 3.3 4.6 -3.7
v 3.3 4.7 -3.5
v 3.3 4.7 -3.6
v 3.3 4.7 -3.7
v 3.3 4.8 -3.1
v 3.3 4.8 -3.2
v 3.3 4.8 -3.3
v 3.3 4.9 -3.6
v 3.3 4.9 -3.7
v 3.3 5 -3.1
v 3.3 5 -3.2
v 3.3 5 -3.3
v 3.3 5 -3.4
v 3.3 5 -3.6
v 3.3 5.1 -3.4
v 3.3 5.1 -3.7
v 3.6 2 -2.9
v 3.6 2 -3
v 3.6 2 -3.8
v 3.6 2 -3.9
v 3.6 2.6 -2.9
v 3.6 2.6 -3
v 3.6 2.6 -3.8
v 3.6 2.6 -3.9
v 3.6 2.9 -2.9
v 3.6 2.9 -3
v 3.6 2.9 -3.8
v 3.6 2.9 -3.9
v 3.6 3.2 -2.9
v 3.6 3.2 -3
v 3.6 3.5 -3
v 3.6 3.7 -2.9
v 3.6 3.7 -3
v 3.6 4 -2.9
v 3.6 4 -3
v 3.6 4.1 -3
v 3.6 4.2 -2.9
v 3.6 4.2 -3
v 3.6 4.4 -2.9
v 3.6 4.4 -3
v 3.6 4.4 -3.1
v 3.6 4.4 -3.7
v 3.6 4.4 -3.8
v 3.6 4.4 -3.9
v 3.6 4.6 -3
v 3.6 4.6 -3.1
v 3.6 4.6 -3.2
v 3.6 4.6 -3.6
v 3.6 4.6 -3.7
v 3.6 4.6 -3.8
v 3.6 5.1 -3.1
v 3.6 5.1 -3.2
v 3.6 5.1 -3.6
v 3.6 5.1 -3.7
v 3.7 4.4 -3.1
v 3.7 4.4 -3.2
v 3.7 4.4 -3.6
v 3.7 4.4 -3.7
v 3.7 4.6 -3.1
v 3.7 4.6 -3.2
v 3.7 4.6 -3.6
v 3.7 4.6 -3.7
v 3.7 5.1 -3.2
v 3.7 5.1 -3.6
v 3.8 2 -3
v 3.8 2 -3.2
v 3.8 2 -3.6
v 3.8 2 -3.8
v 3.8 2.6 -3
v 3.8 2.6 -3.2
v 3.8 2.6 -3.6
v 3.8 2.6 -3.8
v 3.8 2.9 -3
v 3.8 2.9 -3.2
v 3.8 2.9 -3.6
v 3.8 2.9 -3.8
v 3.8 3.3 -3.2
v 3.8 3.4 -3
v 3.8 3.4 -3.2
v 3.8 3.5 -3
v 3.8 3.5 -3.2
v 3.8 3.6 -3
v 3.8 3.6 -3.1
v 3.8 4 -3
v 3.8 4 -3.1
v 3.8 4.1 -3
v 3.8 4.1 -3.2
v 3.8 4.2 -3
v 3.8 4.2 -3.2
v 3.8 4.3 -3.2
v 3.8 4.4 -3
v 3.8 4.4 -3.2
v 3.8 4.4 -3.3
v 3.8 4.4 -3.4
v 3.8 4.4 -3.6
v 3.8 4.4 -3.8
v 3.8 4.6 -3.2
v 3.8 4.6 -3.6
v 3.9 2 -3.2
v 3.9 2 -3.6
v 3.9 2.6 -3.2
v 3.9 2.6 -3.6
v 3.9 2.9 -3.2
v 3.9 2.9 -3.6
v 3.9 3.2 -3.3
v 3.9 3.2 -3.4
v 3.9 3.3 -3.2
v 3.9 3.3 -3.3
v 3.9 3.3 -3.4
v 3.9 3.4 -3.2
v 3.9 3.4 -3.3
v 3.9 4.2 -3.2
v 3.9 4.2 -3.3
v 3.9 4.3 -3.2
v 3.9 4.3 -3.3
v 3.9 4.3 -3.4
v 3.9 4.4 -3.2
v 3.9 4.4 -3.3
v 3.9 4.4 -3.4
v 3.9 4.4 -3.6
v 3.2 2 -2.9
v 3.2 2.6 -2.9
v 3.2 2.9 -2.9
v 3.2 3.2 -2.9
v 3.2 3.7 -2.9
v 3.2 4 -2.9
v 3.2 4.2 -2.9
v 3.2 4.4 -2.9
v 3.3 3.1 -2.9
v 3.3 3.2 -2.9
v 3.3 3.4 -2.9
v 3.3 3.5 -2.9
v 3.3 3.6 -2.9
v 3.3 3.7 -2.9
v 3.3 4 -2.9
v 3.5 3.1 -2.9
v 3.5 3.2 -2.9
v 3.5 3.4 -2.9
v 3.5 3.5 -2.9
v 3.5 3.6 -2.9
v 3.5 3.7 -2.9
v 3.5 4 -2.9
v 3.6 2 -2.9
v 3.6 2.6 -2.9
v 3.6 2.9 -2.9
v 3.6 3.2 -2.9
v 3.6 3.7 -2.9
v 3.6 4 -2.9
v 3.6 4.2 -2.9
v 3.6 4.4 -2.9
v 3 2 -3
v 3 2.6 -3
v 3 2.9 -3
v 3 3.4 -3
v 3 3.5 -3
v 3 3.6 -3
v 3 4 -3
v 3 4.1 -3
v 3 4.2 -3
v 3 4.4 -3
v 3.1 3.4 -3
v 3.1 3.5 -3
v 3.1 3.6 -3
v 3.1 4 -3
v 3.1 4.1 -3
v 3.1 4.2 -3
v 3.2 2 -3
v 3.2 2.6 -3
v 3.2 2.9 -3
v 3.2 3.2 -3
v 3.2 3.5 -3
v 3.2 3.7 -3
v 3.2 4 -3
v 3.2 4.1 -3
v 3.2 4.2 -3
v 3.2 4.4 -3
v 3.2 4.6 -3
v 3.6 2 -3
v 3.6 2.6 -3
v 3.6 2.9 -3
v 3.6 3.2 -3
v 3.6 3.5 -3
v 3.6 3.7 -3
v 3.6 4 -3
v 3.6 4.1 -3
v 3.6 4.2 -3
v 3.6 4.4 -3
v 3.6 4.6 -3
v 3.7 3.4 -3
v 3.7 3.5 -3
v 3.7 3.6 -3
v 3.7 4 -3
v 3.7 4.1 -3
v 3.7 4.2 -3
v 3.8 2 -3
v 3.8 2.6 -3
v 3.8 2.9 -3
v 3.8 3.4 -3
v 3.8 3.5 -3
v 3.8 3.6 -3
v 3.8 4 -3
v 3.8 4.1 -3
v 3.8 4.2 -3
v 3.8 4.4 -3
v 3.1 4.4 -3.1
v 3.1 4.6 -3.1
v 3.2 4.4 -3.1
v 3.2 4.6 -3.1
v 3.2 5.1 -3.1
v 3.3 4.8 -3.1
v 3.3 5 -3.1
v 3.5 4.8 -3.1
v 3.5 5 -3.1
v 3.6 4.4 -3.1
v 3.6 4.6 -3.1
v 3.6 5.1 -3.1
v 3.7 4.4 -3.1
v 3.7 4.6 -3.1
v 2.9 2 -3.2
v 2.9 2.6 -3.2
v 2.9 2.9 -3.2
v 2.9 3.3 -3.2
v 2.9 3.4 -3.2
v 2.9 4.2 -3.2
v 2.9 4.3 -3.2
v 2.9 4.4 -3.2
v 3 2 -3.2
v 3 2.6 -3.2
v 3 2.9 -3.2
v 3 3.3 -3.2
v 3 3.4 -3.2
v 3 3.5 -3.2
v 3 4.1 -3.2
v 3 4.2 -3.2
v 3 4.3 -3.2
v 3 4.4 -3.2
v 3 4.6 -3.2
v 3.1 4.4 -3.2
v 3.1 4.6 -3.2
v 3.1 5.1 -3.2
v 3.2 4.6 -3.2
v 3.2 5.1 -3.2
v 3.6 4.6 -3.2
v 3.6 5.1 -3.2
v 3.7 4.4 -3.2
v 3.7 4.6 -3.2
v 3.7 5.1 -3.2
v 3.8 2 -3.2
v 3.8 2.6 -3.2
v 3.8 2.9 -3.2
v 3.8 3.3 -3.2
v 3.8 3.4 -3.2
v 3.8 3.5 -3.2
v 3.8 4.1 -3.2
v 3.8 4.2 -3.2
v 3.8 4.3 -3.2
v 3.8 4.4 -3.2
v 3.8 4.6 -3.2
v 3.9 2 -3.2
v 3.9 2.6 -3.2
v 3.9 2.9 -3.2
v 3.9 3.3 -3.2
v 3.9 3.4 -3.2
v 3.9 4.2 -3.2
v 3.9 4.3 -3.2
v 3.9 4.4 -3.2
v 3.3 4.8 -3.3
v 3.3 5 -3.3
v 3.5 4.8 -3.3
v 3.5 5 -3.3
v 3.3 5 -3.4
v 3.3 5.1 -3.4
v 3.5 5 -3.4
v 3.5 5.1 -3.4
v 3.3 4.6 -3.5
v 3.3 4.7 -3.5
v 3.5 4.6 -3.5
v 3.5 4.7 -3.5
v 2.9 2 -3.6
v 2.9 2.6 -3.6
v 2.9 2.9 -3.6
v 2.9 4.4 -3.6
v 3 2 -3.6
v 3 2.6 -3.6
v 3 2.9 -3.6
v 3 4.4 -3.6
v 3 4.6 -3.6
v 3.1 4.4 -3.6
v 3.1 4.6 -3.6
v 3.1 5.1 -3.6
v 3.2 4.6 -3.6
v 3.2 5.1 -3.6
v 3.3 4.9 -3.6
v 3.3 5 -3.6
v 3.5 4.9 -3.6
v 3.5 5 -3.6
v 3.6 4.6 -3.6
v 3.6 5.1 -3.6
v 3.7 4.4 -3.6
v 3.7 4.6 -3.6
v 3.7 5.1 -3.6
v 3.8 2 -3.6
v 3.8 2.6 -3.6
v 3.8 2.9 -3.6
v 3.8 4.4 -3.6
v 3.8 4.6 -3.6
v 3.9 2 -3.6
v 3.9 2.6 -3.6
v 3.9 2.9 -3.6
v 3.9 4.4 -3.6
v 3.1 4.4 -3.7
v 3.1 4.6 -3.7
v 3.2 4.4 -3.7
v 3.2 4.6 -3.7
v 3.2 5.1 -3.7
v 3.3 4.6 -3.7
v 3.3 4.7 -3.7
v 3.3 4.9 -3.7
v 3.3 5.1 -3.7
v 3.5 4.6 -3.7
v 3.5 4.7 -3.7
v 3.5 4.9 -3.7
v 3.5 5.1 -3.7
v 3.6 4.4 -3.7
v 3.6 4.6 -3.7
v 3.6 5.1 -3.7
v 3.7 4.4 -3.7
v 3.7 4.6 -3.7
v 3 2 -3.8
v 3 2.6 -3.8
v 3 2.9 -3.8
v 3 4.4 -3.8
v 3.2 2 -3.8
v 3.2 2.6 -3.8
v 3.2 2.9 -3.8
v 3.2 4.4 -3.8
v 3.2 4.6 -3.8
v 3.6 2 -3.8
v 3.6 2.6 -3.8
v 3.6 2.9 -3.8
v 3.6 4.4 -3.8
v 3.6 4.6 -3.8
v 3.8 2 -3.8
v 3.8 2.6 -3.8
v 3.8 2.9 -3.8
v 3.8 4.4 -3.8
v 3.2 2 -3.9
v 3.2 2.6 -3.9
v 3.2 2.9 -3.9
v 3.2 4.4 -3.9
v 3.6 2 -3.9
v 3.6 2.6 -3.9
v 3.6 2.9 -3.9
v 3.6 4.4 -3.9
v 3.2 2 -2.9
v 3.6 2 -2.9
v 3 2 -3
v 3.2 2 -3
v 3.6 2 -3
v 3.8 2 -3
v 2.9 2 -3.2
v 3 2 -3.2
v 3.8 2 -3.2
v 3.9 2 -3.2
v 2.9 2 -3.6
v 3 2 -3.6
v 3.8 2 -3.6
v 3.9 2 -3.6
v 3 2 -3.8
v 3.2 2 -3.8
v 3.6 2 -3.8
v 3.8 2 -3.8
v 3.2 2 -3.9
v 3.6 2 -3.9
v 3.3 4.7 -3.5
v 3.5 4.7 -3.5
v 3.3 4.7 -3.6
v 3.5 4.7 -3.6
v 3.3 4.7 -3.7
v 3.5 4.7 -3.7
v 3.3 5 -3.1
v 3.5 5 -3.1
v 3.3 5 -3.2
v 3.3 5 -3.3
v 3.5 5 -3.3
v 3.2 4.4 -2.9
v 3.6 4.4 -2.9
v 3 4.4 -3
v 3.2 4.4 -3
v 3.6 4.4 -3
v 3.8 4.4 -3
v 3.1 4.4 -3.1
v 3.2 4.4 -3.1
v 3.6 4.4 -3.1
v 3.7 4.4 -3.1
v 2.9 4.4 -3.2
v 3 4.4 -3.2
v 3.1 4.4 -3.2
v 3.7 4.4 -3.2
v 3.8 4.4 -3.2
v 3.9 4.4 -3.2
v 2.9 4.4 -3.3
v 3 4.4 -3.3
v 3.8 4.4 -3.3
v 3.9 4.4 -3.3
v 2.9 4.4 -3.4
v 3 4.4 -3.4
v 3.8 4.4 -3.4
v 3.9 4.4 -3.4
v 2.9 4.4 -3.6
v 3 4.4 -3.6
v 3.1 4.4 -3.6
v 3.7 4.4 -3.6
v 3.8 4.4 -3.6
v 3.9 4.4 -3.6
v 3.1 4.4 -3.7
v 3.2 4.4 -3.7
v 3.6 4.4 -3.7
v 3.7 4.4 -3.7
v 3 4.4 -3.8
v 3.2 4.4 -3.8
v 3.6 4.4 -3.8
v 3.8 4.4 -3.8
v 3.2 4.4 -3.9
v 3.6 4.4 -3.9
v 3.2 4.6 -3
v 3.6 4.6 -3
v 3.1 4.6 -3.1
v 3.2 4.6 -3.1
v 3.6 4.6 -3.1
v 3.7 4.6 -3.1
v 3 4.6 -3.2
v 3.1 4.6 -3.2
v 3.2 4.6 -3.2
v 3.6 4.6 -3.2
v 3.7 4.6 -3.2
v 3.8 4.6 -3.2
v 3.3 4.6 -3.5
v 3.5 4.6 -3.5
v 3 4.6 -3.6
v 3.1 4.6 -3.6
v 3.2 4.6 -3.6
v 3.6 4.6 -3.6
v 3.7 4.6 -3.6
v 3.8 4.6 -3.6
v 3.1 4.6 -3.7
v 3.2 4.6 -3.7
v 3.3 4.6 -3.7
v 3.5 4.6 -3.7
v 3.6 4.6 -3.7
v 3.7 4.6 -3.7
v 3.2 4.6 -3.8
v 3.6 4.6 -3.8
v 3.3 4.8 -3.1
v 3.5 4.8 -3.1
v 3.3 4.8 -3.2
v 3.3 4.8 -3.3
v 3.5 4.8 -3.3
v 3.3 4.9 -3.6
v 3.5 4.9 -3.6
v 3.3 4.9 -3.7
v 3.5 4.9 -3.7
v 3.3 5 -3.4
v 3.5 5 -3.4
v 3.3 5 -3.6
v 3.5 5 -3.6
v 3.2 5.1 -3.1
v 3.6 5.1 -3.1
v 3.1 5.1 -3.2
v 3.2 5.1 -3.2
v 3.6 5.1 -3.2
v 3.7 5.1 -3.2
v 3.3 5.1 -3.4
v 3.5 5.1 -3.4
v 3.1 5.1 -3.6
v 3.2 5.1 -3.6
v 3.6 5.1 -3.6
v 3.7 5.1 -3.6
v 3.2 5.1 -3.7
v 3.3 5.1 -3.7
v 3.5 5.1 -3.7
v 3.6 5.1 -3.7

# faces
f 3/1/1 2/1/1 1/1/1
f 4/1/1 2/1/1 3/1/1
f 5/2/1 4/2/1 3/2/1
f 6/2/1 4/2/1 5/2/1
f 7/6/1 6/6/1 5/6/1
f 8/6/1 6/6/1 7/6/1
f 9/6/1 7/6/1 5/6/1
f 10/4/1 8/4/1 7/4/1
f 10/6/1 7/6/1 9/6/1
f 11/6/1 6/6/1 8/6/1
f 11/4/1 8/4/1 10/4/1
f 12/4/1 10/4/1 9/4/1
f 13/6/1 11/6/1 10/6/1
f 13/4/1 10/4/1 12/4/1
f 14/6/1 13/6/1 12/6/1
f 15/6/1 11/6/1 13/6/1
f 15/6/1 13/6/1 14/6/1
f 16/4/1 15/4/1 14/4/1
f 17/6/1 11/6/1 15/6/1
f 17/4/1 15/4/1 16/4/1
f 18/6/1 6/6/1 11/6/1
f 18/6/1 11/6/1 17/6/1
f 19/6/1 17/6/1 16/6/1
f 20/4/1 18/4/1 17/4/1
f 20/6/1 17/6/1 19/6/1
f 21/6/1 6/6/1 18/6/1
f 21/4/1 18/4/1 20/4/1
f 22/6/1 6/6/1 21/6/1
f 27/1/1 24/1/1 23/1/1
f 28/1/1 24/1/1 27/1/1
f 29/1/1 26/1/1 25/1/1
f 30/1/1 26/1/1 29/1/1
f 31/2/1 28/2/1 27/2/1
f 32/2/1 28/2/1 31/2/1
f 33/2/1 30/2/1 29/2/1
f 34/2/1 30/2/1 33/2/1
f 35/6/1 32/6/1 31/6/1
f 36/6/1 35/6/1 31/6/1
f 37/6/1 35/6/1 36/6/1
f 38/4/1 37/4/1 36/4/1
f 39/4/1 37/4/1 38/4/1
f 40/6/1 39/6/1 38/6/1
f 41/6/1 39/6/1 40/6/1
f 42/3/1 41/3/1 40/3/1
f 43/6/1 39/6/1 41/6/1
f 43/3/1 41/3/1 42/3/1
f 44/6/1 43/6/1 42/6/1
f 45/6/1 39/6/1 43/6/1
f 45/6/1 43/6/1 44/6/1
f 46/4/1 45/4/1 44/4/1
f 47/4/1 45/4/1 46/4/1
f 48/6/1 47/6/1 46/6/1
f 49/6/1 48/6/1 46/6/1
f 50/6/1 48/6/1 49/6/1
f 53/6/1 34/6/1 33/6/1
f 54/6/1 34/6/1 53/6/1
f 55/6/1 52/6/1 51/6/1
f 55/6/1 53/6/1 52/6/1
f 55/6/1 51/6/1 50/6/1
f 56/6/1 53/6/1 55/6/1
f 61/6/1 58/6/1 57/6/1
f 62/6/1 58/6/1 61/6/1
f 63/6/1 60/6/1 59/6/1
f 64/6/1 60/6/1 63/6/1
f 65/5/1 63/5/1 62/5/1
f 66/5/1 63/5/1 65/5/1
f 71/1/1 68/1/1 67/1/1
f 72/1/1 68/1/1 71/1/1
f 73/1/1 70/1/1 69/1/1
f 74/1/1 70/1/1 73/1/1
f 75/2/1 72/2/1 71/2/1
f 76/2/1 72/2/1 75/2/1
f 77/2/1 74/2/1 73/2/1
f 78/2/1 74/2/1 77/2/1
f 79/6/1 76/6/1 75/6/1
f 80/6/1 76/6/1 79/6/1
f 81/3/1 80/3/1 79/3/1
f 82/3/1 81/3/1 79/3/1
f 83/3/1 81/3/1 82/3/1
f 84/6/1 83/6/1 82/6/1
f 85/6/1 83/6/1 84/6/1
f 86/3/1 85/3/1 84/3/1
f 87/3/1 86/3/1 84/3/1
f 88/3/1 86/3/1 87/3/1
f 89/6/1 88/6/1 87/6/1
f 90/6/1 88/6/1 89/6/1
f 93/6/1 78/6/1 77/6/1
f 94/6/1 78/6/1 93/6/1
f 95/6/1 91/6/1 90/6/1
f 96/6/1 91/6/1 95/6/1
f 99/6/1 93/6/1 92/6/1
f 100/6/1 93/6/1 99/6/1
f 101/5/1 97/5/1 96/5/1
f 102/5/1 97/5/1 101/5/1
f 103/5/1 99/5/1 98/5/1
f 104/5/1 99/5/1 103/5/1
f 107/5/1 106/5/1 105/5/1
f 108/5/1 106/5/1 107/5/1
f 109/5/1 106/5/1 108/5/1
f 114/5/1 111/5/1 110/5/1
f 115/5/1 111/5/1 114/5/1
f 117/5/1 113/5/1 112/5/1
f 118/5/1 117/5/1 116/5/1
f 119/5/1 113/5/1 117/5/1
f 119/5/1 117/5/1 118/5/1
f 120/5/2 121/5/2 122/5/2
f 122/5/2 121/5/2 123/5/2
f 123/5/2 121/5/2 124/5/2
f 125/5/2 126/5/2 130/5/2
f 126/6/2 127/6/2 131/6/2
f 130/5/2 126/5/2 131/5/2
f 131/6/2 127/6/2 132/6/2
f 128/5/2 129/5/2 134/5/2
f 133/5/2 134/5/2 135/5/2
f 134/5/2 129/5/2 136/5/2
f 135/5/2 134/5/2 136/5/2
f 137/1/2 138/1/2 141/1/2
f 141/1/2 138/1/2 142/1/2
f 139/1/2 140/1/2 143/1/2
f 143/1/2 140/1/2 144/1/2
f 141/2/2 142/2/2 145/2/2
f 145/2/2 142/2/2 146/2/2
f 143/2/2 144/2/2 147/2/2
f 147/2/2 144/2/2 148/2/2
f 145/6/2 146/6/2 149/6/2
f 149/6/2 146/6/2 150/6/2
f 149/3/2 150/3/2 151/3/2
f 149/3/2 151/3/2 152/3/2
f 152/3/2 151/3/2 153/3/2
f 152/6/2 153/6/2 154/6/2
f 154/6/2 153/6/2 155/6/2
f 154/3/2 155/3/2 156/3/2
f 154/3/2 156/3/2 157/3/2
f 157/3/2 156/3/2 158/3/2
f 157/6/2 158/6/2 159/6/2
f 159/6/2 158/6/2 160/6/2
f 147/6/2 148/6/2 163/6/2
f 163/6/2 148/6/2 164/6/2
f 160/6/2 161/6/2 165/6/2
f 165/6/2 161/6/2 166/6/2
f 162/6/2 163/6/2 169/6/2
f 169/6/2 163/6/2 170/6/2
f 166/5/2 167/5/2 171/5/2
f 171/5/2 167/5/2 172/5/2
f 168/5/2 169/5/2 173/5/2
f 173/5/2 169/5/2 174/5/2
f 175/6/2 176/6/2 179/6/2
f 179/6/2 176/6/2 180/6/2
f 177/6/2 178/6/2 181/6/2
f 181/6/2 178/6/2 182/6/2
f 180/5/2 181/5/2 183/5/2
f 183/5/2 181/5/2 184/5/2
f 185/1/2 186/1/2 189/1/2
f 189/1/2 186/1/2 190/1/2
f 187/1/2 188/1/2 191/1/2
f 191/1/2 188/1/2 192/1/2
f 189/2/2 190/2/2 193/2/2
f 193/2/2 190/2/2 194/2/2
f 191/2/2 192/2/2 195/2/2
f 195/2/2 192/2/2 196/2/2
f 193/6/2 194/6/2 197/6/2
f 193/6/2 197/6/2 198/6/2
f 198/6/2 197/6/2 199/6/2
f 198/4/2 199/4/2 200/4/2
f 200/4/2 199/4/2 201/4/2
f 200/6/2 201/6/2 202/6/2
f 202/6/2 201/6/2 203/6/2
f 202/3/2 203/3/2 204/3/2
f 203/6/2 201/6/2 205/6/2
f 204/3/2 203/3/2 205/3/2
f 204/6/2 205/6/2 206/6/2
f 205/6/2 201/6/2 207/6/2
f 206/6/2 205/6/2 207/6/2
f 206/4/2 207/4/2 208/4/2
f 208/4/2 207/4/2 209/4/2
f 208/6/2 209/6/2 210/6/2
f 208/6/2 210/6/2 211/6/2
f 211/6/2 210/6/2 212/6/2
f 195/6/2 196/6/2 215/6/2
f 215/6/2 196/6/2 216/6/2
f 213/6/2 214/6/2 217/6/2
f 214/6/2 215/6/2 217/6/2
f 212/6/2 213/6/2 217/6/2
f 217/6/2 215/6/2 218/6/2
f 219/1/2 220/1/2 221/1/2
f 221/1/2 220/1/2 222/1/2
f 221/2/2 222/2/2 223/2/2
f 223/2/2 222/2/2 224/2/2
f 223/6/2 224/6/2 225/6/2
f 225/6/2 224/6/2 226/6/2
f 223/6/2 225/6/2 227/6/2
f 225/4/2 226/4/2 228/4/2
f 227/6/2 225/6/2 228/6/2
f 226/6/2 224/6/2 229/6/2
f 228/4/2 226/4/2 229/4/2
f 227/4/2 228/4/2 230/4/2
f 228/6/2 229/6/2 231/6/2
f 230/4/2 228/4/2 231/4/2
f 230/6/2 231/6/2 232/6/2
f 231/6/2 229/6/2 233/6/2
f 232/6/2 231/6/2 233/6/2
f 232/4/2 233/4/2 234/4/2
f 233/6/2 229/6/2 235/6/2
f 234/4/2 233/4/2 235/4/2
f 229/6/2 224/6/2 236/6/2
f 235/6/2 229/6/2 236/6/2
f 234/6/2 235/6/2 237/6/2
f 235/4/2 236/4/2 238/4/2
f 237/6/2 235/6/2 238/6/2
f 236/6/2 224/6/2 239/6/2
f 238/4/2 236/4/2 239/4/2
f 239/6/2 224/6/2 240/6/2
f 249/6/3 244/6/3 243/6/3
f 250/3/3 245/3/3 244/3/3
f 250/6/3 244/6/3 249/6/3
f 251/3/3 245/3/3 250/3/3
f 252/3/3 245/3/3 251/3/3
f 253/3/3 245/3/3 252/3/3
f 254/6/3 246/6/3 245/6/3
f 254/3/3 245/3/3 253/3/3
f 255/3/3 247/3/3 246/3/3
f 255/6/3 246/6/3 254/6/3
f 256/6/3 249/6/3 243/6/3
f 256/3/3 250/3/3 249/3/3
f 257/6/3 251/6/3 250/6/3
f 257/3/3 250/3/3 256/3/3
f 258/3/3 252/3/3 251/3/3
f 258/6/3 251/6/3 257/6/3
f 259/6/3 253/6/3 252/6/3
f 259/3/3 252/3/3 258/3/3
f 260/3/3 254/3/3 253/3/3
f 260/6/3 253/6/3 259/6/3
f 260/3/3 255/3/3 254/3/3
f 261/3/3 255/3/3 260/3/3
f 262/3/3 247/3/3 255/3/3
f 262/3/3 255/3/3 261/3/3
f 263/1/3 242/1/3 241/1/3
f 264/2/3 243/2/3 242/2/3
f 264/1/3 242/1/3 263/1/3
f 265/6/3 257/6/3 256/6/3
f 265/2/3 243/2/3 264/2/3
f 265/6/3 256/6/3 243/6/3
f 266/3/3 261/3/3 260/3/3
f 266/6/3 257/6/3 265/6/3
f 266/3/3 258/3/3 257/3/3
f 266/3/3 260/3/3 259/3/3
f 266/3/3 259/3/3 258/3/3
f 267/6/3 262/6/3 261/6/3
f 267/3/3 261/3/3 266/3/3
f 268/3/3 247/3/3 262/3/3
f 268/6/3 262/6/3 267/6/3
f 269/6/3 248/6/3 247/6/3
f 269/3/3 247/3/3 268/3/3
f 270/6/3 248/6/3 269/6/3
f 281/6/3 274/6/3 273/6/3
f 281/4/3 275/4/3 274/4/3
f 282/6/3 276/6/3 275/6/3
f 282/4/3 275/4/3 281/4/3
f 283/3/3 277/3/3 276/3/3
f 283/6/3 276/6/3 282/6/3
f 284/6/3 278/6/3 277/6/3
f 284/3/3 277/3/3 283/3/3
f 285/4/3 279/4/3 278/4/3
f 285/6/3 278/6/3 284/6/3
f 286/6/3 280/6/3 279/6/3
f 286/4/3 279/4/3 285/4/3
f 287/1/3 272/1/3 271/1/3
f 288/2/3 273/2/3 272/2/3
f 288/1/3 272/1/3 287/1/3
f 289/6/3 281/6/3 273/6/3
f 289/2/3 273/2/3 288/2/3
f 289/6/3 282/6/3 281/6/3
f 290/6/3 282/6/3 289/6/3
f 291/3/3 285/3/3 284/3/3
f 291/6/3 282/6/3 290/6/3
f 291/3/3 284/3/3 283/3/3
f 291/3/3 283/3/3 282/3/3
f 292/3/3 285/3/3 291/3/3
f 293/3/3 285/3/3 292/3/3
f 294/6/3 286/6/3 285/6/3
f 294/3/3 285/3/3 293/3/3
f 295/6/3 280/6/3 286/6/3
f 295/6/3 286/6/3 294/6/3
f 296/6/3 280/6/3 295/6/3
f 307/6/3 297/6/3 296/6/3
f 308/6/3 297/6/3 307/6/3
f 309/6/3 301/6/3 300/6/3
f 309/6/3 302/6/3 301/6/3
f 310/3/3 303/3/3 302/3/3
f 310/6/3 302/6/3 309/6/3
f 310/3/3 304/3/3 303/3/3
f 310/3/3 305/3/3 304/3/3
f 311/3/3 305/3/3 310/3/3
f 312/3/3 305/3/3 311/3/3
f 313/6/3 306/6/3 305/6/3
f 313/3/3 305/3/3 312/3/3
f 313/6/3 307/6/3 306/6/3
f 314/6/3 307/6/3 313/6/3
f 315/1/3 299/1/3 298/1/3
f 316/2/3 300/2/3 299/2/3
f 316/1/3 299/1/3 315/1/3
f 317/6/3 309/6/3 300/6/3
f 317/2/3 300/2/3 316/2/3
f 318/4/3 310/4/3 309/4/3
f 318/6/3 309/6/3 317/6/3
f 319/6/3 311/6/3 310/6/3
f 319/4/3 310/4/3 318/4/3
f 320/3/3 312/3/3 311/3/3
f 320/6/3 311/6/3 319/6/3
f 321/6/3 313/6/3 312/6/3
f 321/3/3 312/3/3 320/3/3
f 322/4/3 314/4/3 313/4/3
f 322/6/3 313/6/3 321/6/3
f 323/6/3 307/6/3 314/6/3
f 323/4/3 314/4/3 322/4/3
f 324/6/3 307/6/3 323/6/3
f 327/6/3 326/6/3 325/6/3
f 328/6/3 326/6/3 327/6/3
f 330/5/3 329/5/3 328/5/3
f 331/5/3 329/5/3 330/5/3
f 332/5/3 330/5/3 328/5/3
f 333/5/3 329/5/3 331/5/3
f 335/5/3 332/5/3 328/5/3
f 335/5/3 333/5/3 332/5/3
f 336/5/3 329/5/3 333/5/3
f 336/5/3 333/5/3 335/5/3
f 337/6/3 335/6/3 334/6/3
f 338/6/3 335/6/3 337/6/3
f 347/1/3 340/1/3 339/1/3
f 348/2/3 341/2/3 340/2/3
f 348/1/3 340/1/3 347/1/3
f 349/6/3 342/6/3 341/6/3
f 349/2/3 341/2/3 348/2/3
f 350/4/3 343/4/3 342/4/3
f 350/6/3 342/6/3 349/6/3
f 351/6/3 344/6/3 343/6/3
f 351/4/3 343/4/3 350/4/3
f 352/6/3 344/6/3 351/6/3
f 353/6/3 344/6/3 352/6/3
f 354/4/3 345/4/3 344/4/3
f 354/6/3 344/6/3 353/6/3
f 355/6/3 346/6/3 345/6/3
f 355/4/3 345/4/3 354/4/3
f 356/6/3 346/6/3 355/6/3
f 358/6/3 357/6/3 356/6/3
f 359/6/3 357/6/3 358/6/3
f 361/5/3 360/5/3 359/5/3
f 362/5/3 360/5/3 361/5/3
f 366/5/3 364/5/3 363/5/3
f 367/5/3 364/5/3 366/5/3
f 377/6/3 366/6/3 365/6/3
f 378/6/3 366/6/3 377/6/3
f 379/1/3 369/1/3 368/1/3
f 380/2/3 370/2/3 369/2/3
f 380/1/3 369/1/3 379/1/3
f 381/6/3 371/6/3 370/6/3
f 381/2/3 370/2/3 380/2/3
f 382/4/3 372/4/3 371/4/3
f 382/6/3 371/6/3 381/6/3
f 383/6/3 373/6/3 372/6/3
f 383/4/3 372/4/3 382/4/3
f 383/6/3 374/6/3 373/6/3
f 383/6/3 375/6/3 374/6/3
f 384/4/3 376/4/3 375/4/3
f 384/6/3 375/6/3 383/6/3
f 385/6/3 377/6/3 376/6/3
f 385/4/3 376/4/3 384/4/3
f 386/6/3 377/6/3 385/6/3
f 389/5/3 388/5/3 387/5/3
f 390/5/3 388/5/3 389/5/3
f 391/5/4 392/5/4 393/5/4
f 393/5/4 392/5/4 394/5/4
f 395/5/4 396/5/4 397/5/4
f 397/5/4 396/5/4 398/5/4
f 399/1/4 400/1/4 403/1/4
f 400/2/4 401/2/4 404/2/4
f 403/1/4 400/1/4 404/1/4
f 401/6/4 402/6/4 405/6/4
f 404/2/4 401/2/4 405/2/4
f 405/6/4 402/6/4 406/6/4
f 406/6/4 407/6/4 408/6/4
f 408/6/4 407/6/4 409/6/4
f 409/5/4 410/5/4 411/5/4
f 411/5/4 410/5/4 412/5/4
f 413/5/4 414/5/4 415/5/4
f 415/5/4 414/5/4 416/5/4
f 417/5/4 418/5/4 420/5/4
f 420/5/4 418/5/4 421/5/4
f 419/6/4 420/6/4 425/6/4
f 425/6/4 420/6/4 426/6/4
f 422/1/4 423/1/4 427/1/4
f 423/2/4 424/2/4 428/2/4
f 427/1/4 423/1/4 428/1/4
f 424/6/4 425/6/4 429/6/4
f 428/2/4 424/2/4 429/2/4
f 429/6/4 425/6/4 430/6/4
f 431/6/4 432/6/4 433/6/4
f 433/6/4 432/6/4 434/6/4
f 434/5/4 435/5/4 436/5/4
f 436/5/4 435/5/4 437/5/4
f 437/5/4 435/5/4 438/5/4
f 438/5/4 435/5/4 439/5/4
f 437/5/4 438/5/4 441/5/4
f 441/5/4 438/5/4 442/5/4
f 440/5/4 441/5/4 445/5/4
f 442/5/4 443/5/4 445/5/4
f 441/5/4 442/5/4 445/5/4
f 445/5/4 443/5/4 446/5/4
f 444/6/4 445/6/4 447/6/4
f 447/6/4 445/6/4 448/6/4
f 449/1/4 450/1/4 453/1/4
f 450/2/4 451/2/4 454/2/4
f 453/1/4 450/1/4 454/1/4
f 451/6/4 452/6/4 455/6/4
f 454/2/4 451/2/4 455/2/4
f 455/6/4 452/6/4 456/6/4
f 456/6/4 457/6/4 461/6/4
f 461/6/4 457/6/4 462/6/4
f 458/1/4 459/1/4 463/1/4
f 459/2/4 460/2/4 464/2/4
f 463/1/4 459/1/4 464/1/4
f 460/6/4 461/6/4 465/6/4
f 464/2/4 460/2/4 465/2/4
f 465/6/4 461/6/4 466/6/4
f 467/1/4 468/1/4 471/1/4
f 468/2/4 469/2/4 472/2/4
f 471/1/4 468/1/4 472/1/4
f 469/6/4 470/6/4 473/6/4
f 472/2/4 469/2/4 473/2/4
f 473/6/4 470/6/4 474/6/4
f 478/1/5 476/1/5 475/1/5
f 479/1/5 476/1/5 478/1/5
f 482/1/5 478/1/5 477/1/5
f 482/1/5 480/1/5 479/1/5
f 482/1/5 479/1/5 478/1/5
f 483/1/5 480/1/5 482/1/5
f 485/1/5 482/1/5 481/1/5
f 485/1/5 484/1/5 483/1/5
f 485/1/5 483/1/5 482/1/5
f 486/1/5 484/1/5 485/1/5
f 487/1/5 484/1/5 486/1/5
f 488/1/5 484/1/5 487/1/5
f 489/1/5 487/1/5 486/1/5
f 490/1/5 487/1/5 489/1/5
f 491/1/5 487/1/5 490/1/5
f 492/1/5 487/1/5 491/1/5
f 493/1/5 491/1/5 490/1/5
f 494/1/5 491/1/5 493/1/5
f 497/6/5 496/6/5 495/6/5
f 498/6/5 496/6/5 497/6/5
f 499/5/5 498/5/5 497/5/5
f 500/5/5 498/5/5 499/5/5
f 503/5/5 502/5/5 501/5/5
f 504/5/5 502/5/5 503/5/5
f 505/5/5 502/5/5 504/5/5
f 506/6/6 507/6/6 509/6/6
f 509/6/6 507/6/6 510/6/6
f 508/6/6 509/6/6 512/6/6
f 512/6/6 509/6/6 513/6/6
f 510/6/6 511/6/6 514/6/6
f 514/6/6 511/6/6 515/6/6
f 508/6/6 512/6/6 517/6/6
f 517/6/6 512/6/6 518/6/6
f 515/6/6 511/6/6 519/6/6
f 519/6/6 511/6/6 520/6/6
f 516/6/6 517/6/6 522/6/6
f 522/6/6 517/6/6 523/6/6
f 520/6/6 521/6/6 524/6/6
f 524/6/6 521/6/6 525/6/6
f 522/4/6 523/4/6 526/4/6
f 526/4/6 523/4/6 527/4/6
f 524/4/6 525/4/6 528/4/6
f 528/4/6 525/4/6 529/4/6
f 526/6/6 527/6/6 530/6/6
f 530/6/6 527/6/6 531/6/6
f 528/6/6 529/6/6 534/6/6
f 534/6/6 529/6/6 535/6/6
f 531/6/6 532/6/6 536/6/6
f 533/6/6 534/6/6 539/6/6
f 536/6/6 537/6/6 540/6/6
f 531/6/6 536/6/6 540/6/6
f 540/6/6 537/6/6 541/6/6
f 538/6/6 539/6/6 542/6/6
f 539/6/6 534/6/6 543/6/6
f 542/6/6 539/6/6 543/6/6
f 541/6/6 542/6/6 544/6/6
f 544/6/6 542/6/6 545/6/6
f 546/6/6 547/6/6 549/6/6
f 549/6/6 547/6/6 550/6/6
f 548/6/6 549/6/6 553/6/6
f 553/6/6 549/6/6 554/6/6
f 550/6/6 551/6/6 555/6/6
f 555/6/6 551/6/6 556/6/6
f 552/6/6 553/6/6 560/6/6
f 560/6/6 553/6/6 561/6/6
f 556/6/6 557/6/6 564/6/6
f 564/6/6 557/6/6 565/6/6
f 561/6/6 562/6/6 566/6/6
f 566/6/6 562/6/6 567/6/6
f 558/5/6 559/5/6 568/5/6
f 568/5/6 559/5/6 569/5/6
f 563/6/6 564/6/6 570/6/6
f 570/6/6 564/6/6 571/6/6
f 568/6/6 569/6/6 572/6/6
f 569/6/6 570/6/6 572/6/6
f 567/6/6 568/6/6 572/6/6
f 572/6/6 570/6/6 573/6/6
f 574/5/6 575/5/6 576/5/6
f 576/5/6 575/5/6 577/5/6
f 577/5/6 575/5/6 578/5/6
f 579/5/6 580/5/6 581/5/6
f 581/5/6 580/5/6 582/5/6
f 583/5/6 584/5/6 585/5/6
f 585/5/6 584/5/6 586/5/6
f 587/5/6 588/5/6 590/5/6
f 590/5/6 588/5/6 591/5/6
f 589/5/6 590/5/6 593/5/6
f 591/5/6 592/5/6 593/5/6
f 590/5/6 591/5/6 593/5/6
f 593/5/6 592/5/6 594/5/6
f 589/5/6 593/5/6 595/5/6
f 595/5/6 593/5/6 596/5/6
f 594/5/6 592/5/6 597/5/6
f 597/5/6 592/5/6 598/5/6
f 596/5/6 593/5/6 599/5/6
f 599/5/6 593/5/6 600/5/6
f 594/5/6 597/5/6 601/5/6
f 601/5/6 597/5/6 602/5/6
